<svg viewBox="0 0 64 64" xmlns="http://www.w3.org/2000/svg" role="img" aria-label="Dreddi knows logo">
  <defs>
    <linearGradient id="dreddi-glow" x1="8" y1="6" x2="54" y2="58" gradientUnits="userSpaceOnUse">
      <stop stop-color="#5DF0B5" stop-opacity="0.9" />
      <stop offset="0.55" stop-color="#4B93FF" stop-opacity="0.8" />
      <stop offset="1" stop-color="#0B1526" stop-opacity="0.95" />
    </linearGradient>
    <linearGradient id="dreddi-core" x1="20" y1="18" x2="46" y2="46" gradientUnits="userSpaceOnUse">
      <stop stop-color="#E7FFF4" />
      <stop offset="1" stop-color="#B6EAD8" />
    </linearGradient>
  </defs>

  <rect x="2.5" y="2.5" width="59" height="59" rx="16" fill="#0B1220" />
  <rect x="2.5" y="2.5" width="59" height="59" rx="16" fill="url(#dreddi-glow)" opacity="0.9" />
  <rect x="6.5" y="6.5" width="51" height="51" rx="13" stroke="#9DE8C9" stroke-opacity="0.15" />

  <path d="M21 15.5h12.8c10 0 18.2 7.8 18.2 16.9C52 42.5 43.8 50 33.8 50H21V15.5Z" fill="url(#dreddi-core)" fill-opacity="0.95" />
  <path d="M30.8 41.2c6.46 0 10.96-4.18 10.96-9.8 0-5.58-4.5-9.8-10.96-9.8H29v19.6h1.8Z" fill="#0B1220" fill-opacity="0.9" />
  <path d="M27.6 34.4 31.8 38 41 26.4" stroke="#0B1220" stroke-width="3" stroke-linecap="round" stroke-linejoin="round" />
  <path d="M27.6 34.4 31.8 38 41 26.4" stroke="#36D399" stroke-width="1.5" stroke-linecap="round" stroke-linejoin="round" />

  <circle cx="20" cy="20" r="4.5" fill="#29D99D" fill-opacity="0.9" />
  <circle cx="44" cy="46" r="3.6" fill="#51A3FF" fill-opacity="0.9" />
  <circle cx="18" cy="44" r="2.8" fill="#E4FCEB" fill-opacity="0.8" />
</svg>
